<svg width="26" height="27" viewBox="0 0 26 27" fill="none" xmlns="http://www.w3.org/2000/svg">
<path d="M16.0941 3.09998L19.5001 6.99998V8.29998H6.5001V6.99998L9.9321 3.09998H16.0941ZM13.0001 6.99998C13.7151 6.99998 14.3001 6.41498 14.3001 5.69998C14.3001 4.98498 13.7151 4.39998 13.0001 4.39998C12.2851 4.39998 11.7001 4.98498 11.7001 5.69998C11.7001 6.41498 12.2851 6.99998 13.0001 6.99998ZM23.4001 22.6V6.99998C23.4001 6.28498 22.8151 5.69998 22.1001 5.69998H20.0981L20.8001 6.51898V9.59998H5.2001V6.50598L5.9151 5.69998H3.9001C3.1851 5.69998 2.6001 6.28498 2.6001 6.99998V22.6C2.6001 23.315 3.1851 23.9 3.9001 23.9H22.1001C22.8151 23.9 23.4001 23.315 23.4001 22.6ZM19.5001 12.2L16.9001 21.3H14.3001L13.0001 14.8L11.7001 21.3H8.9961L6.5001 12.2H9.1001L10.4001 18.7L11.7001 12.2H14.3001L15.6001 18.7L16.9001 12.2H19.5001Z" fill="black"/>
</svg>
