<svg width="26" height="26" viewBox="0 0 26 26" fill="none" xmlns="http://www.w3.org/2000/svg">
<path d="M23.7899 12.35C19.4999 6.36998 11.0499 4.93998 5.06992 9.35998C3.50992 10.53 2.20992 12.09 1.16992 13.78C1.42992 14.3 1.81992 14.82 2.20992 15.34C6.49992 21.32 14.6899 22.62 20.6699 18.46C21.8399 17.55 22.8799 16.64 23.7899 15.34C24.1799 14.82 24.4399 14.3 24.8299 13.78C24.4399 13.26 24.1799 12.74 23.7899 12.35ZM13.1299 9.35998C13.7799 8.70998 14.8199 8.70998 15.4699 9.35998C16.1199 10.01 16.1199 11.05 15.4699 11.7C14.8199 12.35 13.7799 12.35 13.1299 11.7C12.4799 11.05 12.4799 10.01 13.1299 9.35998ZM12.9999 19.37C8.96992 19.37 5.19992 17.29 2.98992 13.91C4.54992 11.7 6.62992 10.14 9.09992 9.35998C8.18992 10.4 7.79992 11.57 7.79992 12.87C7.79992 15.73 10.0099 18.2 12.9999 18.2C15.8599 18.2 18.3299 15.99 18.3299 13V12.87C18.3299 11.57 17.8099 10.27 16.8999 9.35998C19.3699 10.14 21.4499 11.7 23.0099 13.91C20.7999 17.29 17.0299 19.37 12.9999 19.37Z" fill="#2588BF"/>
</svg>
