<svg width="26" height="27" viewBox="0 0 26 27" fill="none" xmlns="http://www.w3.org/2000/svg">
<path d="M23.7899 12.85C19.4999 6.86998 11.0499 5.43998 5.06992 9.85998C3.50992 11.03 2.20992 12.59 1.16992 14.28C1.42992 14.8 1.81992 15.32 2.20992 15.84C6.49992 21.82 14.6899 23.12 20.6699 18.96C21.8399 18.05 22.8799 17.14 23.7899 15.84C24.1799 15.32 24.4399 14.8 24.8299 14.28C24.4399 13.76 24.1799 13.24 23.7899 12.85ZM13.1299 9.85998C13.7799 9.20998 14.8199 9.20998 15.4699 9.85998C16.1199 10.51 16.1199 11.55 15.4699 12.2C14.8199 12.85 13.7799 12.85 13.1299 12.2C12.4799 11.55 12.4799 10.51 13.1299 9.85998ZM12.9999 19.87C8.96992 19.87 5.19992 17.79 2.98992 14.41C4.54992 12.2 6.62992 10.64 9.09992 9.85998C8.18992 10.9 7.79992 12.07 7.79992 13.37C7.79992 16.23 10.0099 18.7 12.9999 18.7C15.8599 18.7 18.3299 16.49 18.3299 13.5V13.37C18.3299 12.07 17.8099 10.77 16.8999 9.85998C19.3699 10.64 21.4499 12.2 23.0099 14.41C20.7999 17.79 17.0299 19.87 12.9999 19.87Z" fill="black"/>
</svg>
