<svg width="200" height="43" viewBox="0 0 200 43" fill="none" xmlns="http://www.w3.org/2000/svg">
<path d="M52.432 26H50.272V18.008H41.488V26H39.328V8.864H41.488V16.112H50.272V8.864H52.432V26ZM61.7011 12.92C63.2691 12.92 64.4291 13.264 65.1811 13.952C65.9331 14.64 66.3091 15.736 66.3091 17.24V26H64.7731L64.3651 24.176H64.2691C63.9011 24.64 63.5171 25.032 63.1171 25.352C62.7331 25.656 62.2851 25.88 61.7731 26.024C61.2771 26.168 60.6691 26.24 59.9491 26.24C59.1811 26.24 58.4851 26.104 57.8611 25.832C57.2531 25.56 56.7731 25.144 56.4211 24.584C56.0691 24.008 55.8931 23.288 55.8931 22.424C55.8931 21.144 56.3971 20.16 57.4051 19.472C58.4131 18.768 59.9651 18.384 62.0611 18.32L64.2451 18.248V17.48C64.2451 16.408 64.0131 15.664 63.5491 15.248C63.0851 14.832 62.4291 14.624 61.5811 14.624C60.9091 14.624 60.2691 14.728 59.6611 14.936C59.0531 15.128 58.4851 15.352 57.9571 15.608L57.3091 14.024C57.8691 13.72 58.5331 13.464 59.3011 13.256C60.0691 13.032 60.8691 12.92 61.7011 12.92ZM62.3251 19.784C60.7251 19.848 59.6131 20.104 58.9891 20.552C58.3811 21 58.0771 21.632 58.0771 22.448C58.0771 23.168 58.2931 23.696 58.7251 24.032C59.1731 24.368 59.7411 24.536 60.4291 24.536C61.5171 24.536 62.4211 24.24 63.1411 23.648C63.8611 23.04 64.2211 22.112 64.2211 20.864V19.712L62.3251 19.784ZM87.013 13.136V14.912H81.277V26H79.165V13.136H87.013ZM98.6133 26H96.4773V14.888H92.6853C92.5253 16.92 92.3253 18.656 92.0853 20.096C91.8453 21.52 91.5413 22.68 91.1733 23.576C90.8053 24.472 90.3653 25.128 89.8533 25.544C89.3413 25.96 88.7413 26.168 88.0533 26.168C87.8453 26.168 87.6373 26.152 87.4293 26.12C87.2373 26.104 87.0773 26.064 86.9493 26V24.416C87.0453 24.448 87.1493 24.472 87.2613 24.488C87.3733 24.504 87.4853 24.512 87.5973 24.512C87.9493 24.512 88.2693 24.368 88.5573 24.08C88.8453 23.792 89.1013 23.352 89.3253 22.76C89.5653 22.168 89.7813 21.424 89.9733 20.528C90.1653 19.616 90.3333 18.544 90.4773 17.312C90.6213 16.08 90.7493 14.688 90.8613 13.136H98.6133V26ZM107.568 12.92C109.136 12.92 110.296 13.264 111.048 13.952C111.8 14.64 112.176 15.736 112.176 17.24V26H110.64L110.232 24.176H110.136C109.768 24.64 109.384 25.032 108.984 25.352C108.6 25.656 108.152 25.88 107.64 26.024C107.144 26.168 106.536 26.24 105.816 26.24C105.048 26.24 104.352 26.104 103.728 25.832C103.12 25.56 102.64 25.144 102.288 24.584C101.936 24.008 101.76 23.288 101.76 22.424C101.76 21.144 102.264 20.16 103.272 19.472C104.28 18.768 105.832 18.384 107.928 18.32L110.112 18.248V17.48C110.112 16.408 109.88 15.664 109.416 15.248C108.952 14.832 108.296 14.624 107.448 14.624C106.776 14.624 106.136 14.728 105.528 14.936C104.92 15.128 104.352 15.352 103.824 15.608L103.176 14.024C103.736 13.72 104.4 13.464 105.168 13.256C105.936 13.032 106.736 12.92 107.568 12.92ZM108.192 19.784C106.592 19.848 105.48 20.104 104.856 20.552C104.248 21 103.944 21.632 103.944 22.448C103.944 23.168 104.16 23.696 104.592 24.032C105.04 24.368 105.608 24.536 106.296 24.536C107.384 24.536 108.288 24.24 109.008 23.648C109.728 23.04 110.088 22.112 110.088 20.864V19.712L108.192 19.784ZM126.493 16.376C126.493 17.176 126.253 17.8 125.773 18.248C125.293 18.696 124.677 19 123.925 19.16V19.256C124.725 19.368 125.421 19.656 126.013 20.12C126.605 20.568 126.901 21.272 126.901 22.232C126.901 22.776 126.797 23.28 126.589 23.744C126.397 24.208 126.093 24.608 125.677 24.944C125.261 25.28 124.725 25.544 124.069 25.736C123.413 25.912 122.621 26 121.693 26H116.149V13.136H121.669C122.581 13.136 123.397 13.24 124.117 13.448C124.853 13.64 125.429 13.976 125.845 14.456C126.277 14.92 126.493 15.56 126.493 16.376ZM124.717 22.232C124.717 21.496 124.437 20.968 123.877 20.648C123.317 20.328 122.493 20.168 121.405 20.168H118.261V24.296H121.453C122.509 24.296 123.317 24.144 123.877 23.84C124.437 23.52 124.717 22.984 124.717 22.232ZM124.357 16.64C124.357 16.032 124.133 15.592 123.685 15.32C123.253 15.032 122.541 14.888 121.549 14.888H118.261V18.416H121.165C122.205 18.416 122.997 18.272 123.541 17.984C124.085 17.696 124.357 17.248 124.357 16.64ZM132.09 13.136V18.488H139.074V13.136H141.186V26H139.074V20.264H132.09V26H129.978V13.136H132.09ZM143.243 13.136H145.499L148.283 20.456C148.443 20.888 148.587 21.304 148.715 21.704C148.859 22.104 148.987 22.496 149.099 22.88C149.211 23.248 149.299 23.608 149.363 23.96H149.459C149.555 23.56 149.707 23.04 149.915 22.4C150.123 21.744 150.339 21.088 150.563 20.432L153.179 13.136H155.459L149.915 27.776C149.611 28.576 149.251 29.272 148.835 29.864C148.435 30.472 147.939 30.936 147.347 31.256C146.771 31.592 146.067 31.76 145.235 31.76C144.851 31.76 144.515 31.736 144.227 31.688C143.939 31.656 143.691 31.616 143.483 31.568V29.888C143.659 29.92 143.867 29.952 144.107 29.984C144.363 30.016 144.627 30.032 144.899 30.032C145.395 30.032 145.819 29.936 146.171 29.744C146.539 29.568 146.851 29.304 147.107 28.952C147.363 28.616 147.579 28.216 147.755 27.752L148.427 26.048L143.243 13.136ZM174.197 19.544C174.197 20.968 173.965 22.184 173.501 23.192C173.037 24.184 172.381 24.944 171.533 25.472C170.685 25.984 169.677 26.24 168.509 26.24C167.421 26.24 166.469 26.016 165.653 25.568C164.837 25.104 164.189 24.432 163.709 23.552C163.229 22.656 162.949 21.56 162.869 20.264H159.605V26H157.493V13.136H159.605V18.488H162.893C163.005 17.272 163.301 16.256 163.781 15.44C164.277 14.608 164.925 13.976 165.725 13.544C166.541 13.112 167.485 12.896 168.557 12.896C169.661 12.896 170.637 13.16 171.485 13.688C172.333 14.2 172.997 14.952 173.477 15.944C173.957 16.92 174.197 18.12 174.197 19.544ZM165.029 19.544C165.029 20.616 165.149 21.52 165.389 22.256C165.645 22.992 166.029 23.552 166.541 23.936C167.053 24.304 167.717 24.488 168.533 24.488C169.349 24.488 170.013 24.304 170.525 23.936C171.037 23.552 171.413 22.992 171.653 22.256C171.893 21.52 172.013 20.616 172.013 19.544C172.013 18.472 171.893 17.576 171.653 16.856C171.413 16.136 171.037 15.592 170.525 15.224C170.013 14.856 169.349 14.672 168.533 14.672C167.717 14.672 167.053 14.856 166.541 15.224C166.029 15.592 165.645 16.136 165.389 16.856C165.149 17.576 165.029 18.472 165.029 19.544Z" fill="black"/>
<path d="M20.2999 10.75L13.05 18.5L20.2999 26.25L18.8499 29.35L8.69995 18.5L18.8499 7.65002L20.2999 10.75Z" fill="black"/>
</svg>
