<svg width="45" height="49" viewBox="0 0 45 49" fill="none" xmlns="http://www.w3.org/2000/svg">
<path d="M22.4967 0C21.0885 0 19.6732 0.309277 18.6059 0.928711L4.27749 9.1999C2.13355 10.4377 0.381104 13.4728 0.381104 15.9464V32.4913C0.381104 34.9655 2.13355 38.0016 4.27759 39.2388L18.6059 47.5116C19.6732 48.1292 21.0884 48.4376 22.4967 48.4376C23.9114 48.4376 25.3258 48.1292 26.3932 47.5116L40.7215 39.2388C42.8624 38.0016 44.6188 34.9655 44.6188 32.4913V15.9463C44.6188 13.4727 42.8624 10.4375 40.7215 9.19981L26.3931 0.928809C25.3258 0.309277 23.9114 0 22.4967 0ZM32.1832 14.0989C32.596 14.0989 33.0084 14.2554 33.321 14.5689L35.0638 16.3099C35.689 16.9376 35.689 17.964 35.0638 18.5911L19.7871 33.8694C19.1556 34.496 18.133 34.496 17.5078 33.8694L10.7751 27.1396C10.15 26.5132 10.2826 25.3548 10.7751 24.8604L12.5188 23.1193C13.1441 22.4916 14.1731 22.4916 14.7982 23.1193L17.5078 25.827C18.133 26.4534 19.1556 26.4534 19.7871 25.827L31.0406 14.5689C31.3442 14.2672 31.755 14.0982 32.1831 14.0989H32.1832Z" fill="#1454F6"/>
</svg>
