<svg width="129" height="42" viewBox="0 0 129 42" fill="none" xmlns="http://www.w3.org/2000/svg">
<g filter="url(#filter0_d_116_242)">
<g clip-path="url(#clip0_116_242)">
<rect x="4" width="125" height="34" fill="white"/>
<path d="M12.568 11.576H13.912V17.848C13.912 18.1147 13.9067 18.408 13.896 18.728C13.896 19.0373 13.8907 19.3467 13.88 19.656C13.8693 19.9653 13.8533 20.2427 13.832 20.488C13.8213 20.7227 13.8107 20.904 13.8 21.032H13.864L20.152 11.576H21.752V23H20.408V16.792C20.408 16.504 20.4133 16.1947 20.424 15.864C20.4347 15.5227 20.4453 15.1973 20.456 14.888C20.4773 14.568 20.4933 14.2853 20.504 14.04C20.5147 13.7947 20.5253 13.6133 20.536 13.496H20.472L14.168 23H12.568V11.576ZM26.8973 14.264C27.5479 14.264 28.1133 14.3547 28.5933 14.536C29.0733 14.7067 29.4466 14.9627 29.7133 15.304C29.9799 15.6347 30.1133 16.04 30.1133 16.52C30.1133 17.0427 29.9693 17.4587 29.6813 17.768C29.3933 18.0667 28.9986 18.2853 28.4973 18.424V18.488C28.8386 18.584 29.1533 18.7173 29.4413 18.888C29.7293 19.0587 29.9586 19.2827 30.1293 19.56C30.3106 19.8373 30.4013 20.1947 30.4013 20.632C30.4013 21.1013 30.2679 21.528 30.0013 21.912C29.7453 22.296 29.3453 22.6 28.8013 22.824C28.2679 23.048 27.5799 23.16 26.7373 23.16C26.3319 23.16 25.9426 23.1387 25.5693 23.096C25.2066 23.0533 24.8759 22.9893 24.5773 22.904C24.2893 22.8187 24.0333 22.7173 23.8092 22.6V21.336C24.1719 21.5067 24.5986 21.6613 25.0893 21.8C25.5906 21.9387 26.1346 22.008 26.7213 22.008C27.1479 22.008 27.5319 21.96 27.8733 21.864C28.2253 21.768 28.5026 21.6187 28.7053 21.416C28.9079 21.2027 29.0093 20.9147 29.0093 20.552C29.0093 20.2213 28.9186 19.9547 28.7373 19.752C28.5559 19.5387 28.2839 19.3787 27.9213 19.272C27.5693 19.1653 27.1159 19.112 26.5613 19.112H25.4093V17.96H26.3373C27.0733 17.96 27.6599 17.864 28.0973 17.672C28.5453 17.4693 28.7693 17.128 28.7693 16.648C28.7693 16.2427 28.5986 15.9387 28.2573 15.736C27.9266 15.5333 27.4466 15.432 26.8173 15.432C26.3479 15.432 25.9319 15.48 25.5693 15.576C25.2173 15.6613 24.8279 15.7947 24.4013 15.976L23.9053 14.856C24.3639 14.6533 24.8439 14.504 25.3453 14.408C25.8466 14.312 26.3639 14.264 26.8973 14.264ZM39.941 18.696C39.941 19.4107 39.845 20.0453 39.653 20.6C39.4717 21.144 39.205 21.608 38.853 21.992C38.5117 22.376 38.0903 22.6693 37.589 22.872C37.0983 23.064 36.549 23.16 35.941 23.16C35.3757 23.16 34.853 23.064 34.373 22.872C33.893 22.6693 33.477 22.376 33.125 21.992C32.773 21.608 32.4957 21.144 32.293 20.6C32.101 20.0453 32.005 19.4107 32.005 18.696C32.005 17.7467 32.165 16.9467 32.485 16.296C32.805 15.6347 33.2637 15.1333 33.861 14.792C34.4583 14.44 35.1677 14.264 35.989 14.264C36.7677 14.264 37.4503 14.44 38.037 14.792C38.6343 15.1333 39.0983 15.6347 39.429 16.296C39.7703 16.9467 39.941 17.7467 39.941 18.696ZM33.461 18.696C33.461 19.368 33.5463 19.9547 33.717 20.456C33.8983 20.9467 34.1757 21.3253 34.549 21.592C34.9223 21.8587 35.397 21.992 35.973 21.992C36.549 21.992 37.0237 21.8587 37.397 21.592C37.7703 21.3253 38.0423 20.9467 38.213 20.456C38.3943 19.9547 38.485 19.368 38.485 18.696C38.485 18.0133 38.3943 17.432 38.213 16.952C38.0317 16.472 37.7543 16.104 37.381 15.848C37.0183 15.5813 36.5437 15.448 35.957 15.448C35.0823 15.448 34.4477 15.736 34.053 16.312C33.6583 16.888 33.461 17.6827 33.461 18.696ZM41.7245 17.848C41.7245 16.6 41.8472 15.5387 42.0925 14.664C42.3485 13.7787 42.7378 13.0747 43.2605 12.552C43.7938 12.0187 44.4765 11.6613 45.3085 11.48C46.0018 11.3307 46.6792 11.1973 47.3405 11.08C48.0018 10.9627 48.6205 10.856 49.1965 10.76L49.4365 11.992C49.1592 12.0347 48.8498 12.088 48.5085 12.152C48.1672 12.2053 47.8205 12.264 47.4685 12.328C47.1165 12.3813 46.7752 12.44 46.4445 12.504C46.1245 12.5573 45.8418 12.6107 45.5965 12.664C45.2445 12.7387 44.9298 12.8667 44.6525 13.048C44.3752 13.2187 44.1352 13.4533 43.9325 13.752C43.7405 14.0507 43.5858 14.4187 43.4685 14.856C43.3512 15.2933 43.2818 15.8107 43.2605 16.408H43.3565C43.5058 16.2053 43.7085 15.9973 43.9645 15.784C44.2312 15.5707 44.5458 15.3893 44.9085 15.24C45.2818 15.0907 45.7032 15.016 46.1725 15.016C46.9192 15.016 47.5378 15.1813 48.0285 15.512C48.5298 15.832 48.9032 16.28 49.1485 16.856C49.4045 17.432 49.5325 18.104 49.5325 18.872C49.5325 19.8213 49.3672 20.616 49.0365 21.256C48.7058 21.896 48.2472 22.376 47.6605 22.696C47.0738 23.0053 46.3912 23.16 45.6125 23.16C45.0258 23.16 44.4925 23.048 44.0125 22.824C43.5325 22.5893 43.1218 22.248 42.7805 21.8C42.4392 21.352 42.1778 20.7973 41.9965 20.136C41.8152 19.4747 41.7245 18.712 41.7245 17.848ZM45.7245 21.992C46.1938 21.992 46.5992 21.896 46.9405 21.704C47.2925 21.512 47.5645 21.1973 47.7565 20.76C47.9485 20.3227 48.0445 19.7413 48.0445 19.016C48.0445 18.1413 47.8792 17.4533 47.5485 16.952C47.2285 16.44 46.6952 16.184 45.9485 16.184C45.4792 16.184 45.0525 16.2907 44.6685 16.504C44.2845 16.7067 43.9645 16.9413 43.7085 17.208C43.4525 17.4747 43.2712 17.6987 43.1645 17.88C43.1645 18.4027 43.2018 18.9093 43.2765 19.4C43.3512 19.8907 43.4792 20.3333 43.6605 20.728C43.8525 21.112 44.1138 21.4213 44.4445 21.656C44.7858 21.88 45.2125 21.992 45.7245 21.992ZM55.8306 14.264C56.8866 14.264 57.7346 14.632 58.3746 15.368C59.0253 16.104 59.3506 17.2133 59.3506 18.696C59.3506 19.6667 59.2013 20.488 58.9026 21.16C58.6146 21.8213 58.204 22.3227 57.6706 22.664C57.148 22.9947 56.5293 23.16 55.8146 23.16C55.3773 23.16 54.988 23.1013 54.6466 22.984C54.3053 22.8667 54.012 22.7173 53.7666 22.536C53.532 22.344 53.3293 22.136 53.1586 21.912H53.0626C53.084 22.0933 53.1053 22.3227 53.1266 22.6C53.148 22.8773 53.1586 23.1173 53.1586 23.32V26.84H51.7506V14.424H52.9026L53.0946 15.592H53.1586C53.3293 15.3467 53.532 15.1227 53.7666 14.92C54.012 14.7173 54.3 14.5573 54.6306 14.44C54.972 14.3227 55.372 14.264 55.8306 14.264ZM55.5746 15.448C54.9986 15.448 54.5346 15.56 54.1826 15.784C53.8306 15.9973 53.5746 16.3227 53.4146 16.76C53.2546 17.1973 53.1693 17.752 53.1586 18.424V18.696C53.1586 19.4 53.2333 19.9973 53.3826 20.488C53.532 20.9787 53.7826 21.352 54.1346 21.608C54.4973 21.864 54.988 21.992 55.6066 21.992C56.1293 21.992 56.556 21.848 56.8866 21.56C57.228 21.272 57.4786 20.8827 57.6386 20.392C57.8093 19.8907 57.8946 19.32 57.8946 18.68C57.8946 17.6987 57.7026 16.9147 57.3186 16.328C56.9453 15.7413 56.364 15.448 55.5746 15.448ZM64.8424 14.28C65.8877 14.28 66.661 14.5093 67.1624 14.968C67.6637 15.4267 67.9144 16.1573 67.9144 17.16V23H66.8904L66.6184 21.784H66.5544C66.309 22.0933 66.053 22.3547 65.7864 22.568C65.5304 22.7707 65.2317 22.92 64.8904 23.016C64.5597 23.112 64.1544 23.16 63.6744 23.16C63.1624 23.16 62.6984 23.0693 62.2824 22.888C61.877 22.7067 61.557 22.4293 61.3224 22.056C61.0877 21.672 60.9704 21.192 60.9704 20.616C60.9704 19.7627 61.3064 19.1067 61.9784 18.648C62.6504 18.1787 63.685 17.9227 65.0824 17.88L66.5384 17.832V17.32C66.5384 16.6053 66.3837 16.1093 66.0744 15.832C65.765 15.5547 65.3277 15.416 64.7624 15.416C64.3144 15.416 63.8877 15.4853 63.4824 15.624C63.077 15.752 62.6984 15.9013 62.3464 16.072L61.9144 15.016C62.2877 14.8133 62.7304 14.6427 63.2424 14.504C63.7544 14.3547 64.2877 14.28 64.8424 14.28ZM65.2584 18.856C64.1917 18.8987 63.4504 19.0693 63.0344 19.368C62.629 19.6667 62.4264 20.088 62.4264 20.632C62.4264 21.112 62.5704 21.464 62.8584 21.688C63.157 21.912 63.5357 22.024 63.9944 22.024C64.7197 22.024 65.3224 21.8267 65.8024 21.432C66.2824 21.0267 66.5224 20.408 66.5224 19.576V18.808L65.2584 18.856ZM80.8511 14.424L77.3151 18.584L81.1551 23H79.5551L75.8431 18.648V23H74.5311V18.648L70.8191 23H69.2191L73.0591 18.584L69.5231 14.424H71.0591L74.5311 18.584V14.424H75.8431V18.584L79.3311 14.424H80.8511ZM85.5626 14.264C86.2986 14.264 86.928 14.424 87.4506 14.744C87.984 15.064 88.3893 15.5173 88.6666 16.104C88.9546 16.68 89.0986 17.3573 89.0986 18.136V18.984H83.2266C83.248 19.9547 83.4933 20.696 83.9626 21.208C84.4426 21.7093 85.1093 21.96 85.9626 21.96C86.5066 21.96 86.9866 21.912 87.4026 21.816C87.8293 21.7093 88.2666 21.56 88.7146 21.368V22.6C88.2773 22.792 87.8453 22.9307 87.4186 23.016C86.992 23.112 86.4853 23.16 85.8986 23.16C85.088 23.16 84.368 22.9947 83.7386 22.664C83.12 22.3333 82.6346 21.8427 82.2826 21.192C81.9413 20.5307 81.7706 19.7253 81.7706 18.776C81.7706 17.8373 81.9253 17.032 82.2346 16.36C82.5546 15.688 82.9973 15.1707 83.5626 14.808C84.1386 14.4453 84.8053 14.264 85.5626 14.264ZM85.5466 15.416C84.8746 15.416 84.3413 15.6347 83.9466 16.072C83.5626 16.4987 83.3333 17.096 83.2586 17.864H87.6266C87.6266 17.3733 87.552 16.9467 87.4026 16.584C87.2533 16.2213 87.024 15.9387 86.7146 15.736C86.416 15.5227 86.0266 15.416 85.5466 15.416ZM92.6899 14.424V17.992H97.3459V14.424H98.7539V23H97.3459V19.176H92.6899V23H91.2819V14.424H92.6899ZM102.797 19.656C102.797 19.752 102.792 19.8907 102.781 20.072C102.781 20.2427 102.776 20.4293 102.765 20.632C102.755 20.824 102.744 21.0107 102.733 21.192C102.723 21.3627 102.712 21.5013 102.701 21.608L107.293 14.424H109.021V23H107.709V17.944C107.709 17.7733 107.709 17.5493 107.709 17.272C107.72 16.9947 107.731 16.7227 107.741 16.456C107.752 16.1787 107.763 15.9707 107.773 15.832L103.213 23H101.469V14.424H102.797V19.656ZM115.063 14.264C115.799 14.264 116.428 14.424 116.951 14.744C117.484 15.064 117.889 15.5173 118.167 16.104C118.455 16.68 118.599 17.3573 118.599 18.136V18.984H112.727C112.748 19.9547 112.993 20.696 113.463 21.208C113.943 21.7093 114.609 21.96 115.463 21.96C116.007 21.96 116.487 21.912 116.903 21.816C117.329 21.7093 117.767 21.56 118.215 21.368V22.6C117.777 22.792 117.345 22.9307 116.919 23.016C116.492 23.112 115.985 23.16 115.399 23.16C114.588 23.16 113.868 22.9947 113.239 22.664C112.62 22.3333 112.135 21.8427 111.783 21.192C111.441 20.5307 111.271 19.7253 111.271 18.776C111.271 17.8373 111.425 17.032 111.735 16.36C112.055 15.688 112.497 15.1707 113.063 14.808C113.639 14.4453 114.305 14.264 115.063 14.264ZM115.047 15.416C114.375 15.416 113.841 15.6347 113.447 16.072C113.063 16.4987 112.833 17.096 112.759 17.864H117.127C117.127 17.3733 117.052 16.9467 116.903 16.584C116.753 16.2213 116.524 15.9387 116.215 15.736C115.916 15.5227 115.527 15.416 115.047 15.416Z" fill="#2588BF"/>
</g>
<rect x="4.5" y="0.5" width="124" height="33" stroke="#E2E2E2"/>
</g>
<defs>
<filter id="filter0_d_116_242" x="0" y="0" width="133" height="42" filterUnits="userSpaceOnUse" color-interpolation-filters="sRGB">
<feFlood flood-opacity="0" result="BackgroundImageFix"/>
<feColorMatrix in="SourceAlpha" type="matrix" values="0 0 0 0 0 0 0 0 0 0 0 0 0 0 0 0 0 0 127 0" result="hardAlpha"/>
<feOffset dy="4"/>
<feGaussianBlur stdDeviation="2"/>
<feComposite in2="hardAlpha" operator="out"/>
<feColorMatrix type="matrix" values="0 0 0 0 0 0 0 0 0 0 0 0 0 0 0 0 0 0 0.25 0"/>
<feBlend mode="normal" in2="BackgroundImageFix" result="effect1_dropShadow_116_242"/>
<feBlend mode="normal" in="SourceGraphic" in2="effect1_dropShadow_116_242" result="shape"/>
</filter>
<clipPath id="clip0_116_242">
<rect x="4" width="125" height="34" fill="white"/>
</clipPath>
</defs>
</svg>
