<svg width="25" height="25" viewBox="0 0 25 25" fill="none" xmlns="http://www.w3.org/2000/svg">
<g clip-path="url(#clip0_426_166)">
<rect width="25" height="25" rx="3" fill="#2588BF" fill-opacity="0.34"/>
<path d="M7.33344 6.418H13.7054C14.9174 6.418 15.8714 6.718 16.5674 7.318C17.2754 7.918 17.6294 8.776 17.6294 9.892C17.6294 10.42 17.5094 10.912 17.2694 11.368C17.0294 11.824 16.6874 12.184 16.2434 12.448C16.8554 12.688 17.3054 13.036 17.5934 13.492C17.8814 13.936 18.0254 14.518 18.0254 15.238C18.0254 16.006 17.8454 16.678 17.4854 17.254C17.1254 17.818 16.6394 18.25 16.0274 18.55C15.4274 18.85 14.7554 19 14.0114 19H7.33344V6.418ZM13.0034 11.404C13.9394 11.404 14.4074 10.966 14.4074 10.09C14.4074 9.598 14.2874 9.262 14.0474 9.082C13.8074 8.89 13.4414 8.794 12.9494 8.794H10.5194V11.404H13.0034ZM13.2014 16.624C13.7414 16.624 14.1434 16.522 14.4074 16.318C14.6714 16.114 14.8034 15.754 14.8034 15.238C14.8034 14.722 14.6654 14.35 14.3894 14.122C14.1134 13.882 13.6934 13.762 13.1294 13.762H10.5194V16.624H13.2014Z" fill="black"/>
</g>
<defs>
<clipPath id="clip0_426_166">
<rect width="25" height="25" rx="3" fill="white"/>
</clipPath>
</defs>
</svg>
