<svg width="25" height="25" viewBox="0 0 25 25" fill="none" xmlns="http://www.w3.org/2000/svg">
<g clip-path="url(#clip0_426_168)">
<rect width="25" height="25" rx="3" fill="#2588BF" fill-opacity="0.34"/>
<path d="M13.5804 19.27C12.2844 19.27 11.1324 19 10.1244 18.46C9.11635 17.92 8.33035 17.158 7.76635 16.174C7.20235 15.178 6.92035 14.026 6.92035 12.718C6.92035 11.41 7.20235 10.258 7.76635 9.262C8.33035 8.266 9.11635 7.498 10.1244 6.958C11.1324 6.418 12.2844 6.148 13.5804 6.148C15.3084 6.148 16.7544 6.586 17.9184 7.462V9.226C16.8744 8.302 15.4824 7.84 13.7424 7.84C12.7704 7.84 11.9064 8.038 11.1504 8.434C10.4064 8.83 9.82435 9.4 9.40435 10.144C8.98435 10.876 8.77435 11.734 8.77435 12.718C8.77435 13.702 8.98435 14.566 9.40435 15.31C9.83635 16.054 10.4244 16.624 11.1684 17.02C11.9244 17.416 12.7824 17.614 13.7424 17.614C14.6304 17.614 15.4224 17.5 16.1184 17.272C16.8264 17.032 17.4804 16.654 18.0804 16.138V17.92C17.0004 18.82 15.5004 19.27 13.5804 19.27Z" fill="black"/>
<path d="M6.11035 20.8H18.8904V21.7H6.11035V20.8Z" fill="black"/>
</g>
<defs>
<clipPath id="clip0_426_168">
<rect width="25" height="25" rx="3" fill="white"/>
</clipPath>
</defs>
</svg>
