<svg width="35" height="35" viewBox="0 0 40 40" fill="none" xmlns="http://www.w3.org/2000/svg">
<path d="M4.99968 21.5385C5.56796 21.5385 6.11297 21.2953 6.51481 20.8626C6.91665 20.4298 7.1424 19.8428 7.1424 19.2308V4.61538H21.4272V14.6154C21.4272 15.2274 21.6529 15.8144 22.0548 16.2472C22.4566 16.6799 23.0016 16.9231 23.5699 16.9231H32.855V19.2308C32.855 19.8428 33.0808 20.4298 33.4826 20.8626C33.8844 21.2953 34.4295 21.5385 34.9977 21.5385C35.566 21.5385 36.111 21.2953 36.5129 20.8626C36.9147 20.4298 37.1405 19.8428 37.1405 19.2308V13.0769C37.1361 12.4655 36.9121 11.8797 36.5155 11.4423L26.5161 0.673077C26.11 0.245893 25.5661 0.00467099 24.9984 0H6.42816C5.48246 0.00505471 4.57684 0.411896 3.90812 1.1321C3.23941 1.8523 2.86165 2.82765 2.85696 3.84615V19.2308C2.85696 19.8428 3.08271 20.4298 3.48455 20.8626C3.88638 21.2953 4.43139 21.5385 4.99968 21.5385ZM31.248 12.3077H25.7126V6.34615L31.248 12.3077ZM4.99968 24.6154H2.14272C1.57443 24.6154 1.02943 24.8585 0.627588 25.2913C0.22575 25.7241 0 26.311 0 26.9231V37.6923C0 38.3043 0.22575 38.8913 0.627588 39.3241C1.02943 39.7569 1.57443 40 2.14272 40H4.99968C6.89396 40 8.71065 39.1896 10.0501 37.747C11.3896 36.3044 12.1421 34.3478 12.1421 32.3077C12.1421 30.2676 11.3896 28.311 10.0501 26.8684C8.71065 25.4258 6.89396 24.6154 4.99968 24.6154ZM4.99968 35.3846H4.28544V29.2308H4.99968C5.75739 29.2308 6.48407 29.5549 7.01985 30.132C7.55563 30.709 7.85664 31.4916 7.85664 32.3077C7.85664 33.1237 7.55563 33.9064 7.01985 34.4834C6.48407 35.0604 5.75739 35.3846 4.99968 35.3846ZM39.6224 35.5385C39.7821 35.7884 39.8945 36.0698 39.9531 36.3665C40.0117 36.6633 40.0154 36.9696 39.964 37.2678C39.9126 37.5661 39.8071 37.8506 39.6535 38.1049C39.4999 38.3592 39.3012 38.5784 39.0689 38.75C37.975 39.5577 36.6811 39.9931 35.3549 40C31.6051 40 28.5696 36.5577 28.5696 32.3077C28.5696 28.0577 31.6051 24.6154 35.3549 24.6154C36.6811 24.6222 37.975 25.0577 39.0689 25.8654C39.5377 26.2122 39.8594 26.7454 39.9633 27.3477C40.0671 27.95 39.9445 28.572 39.6224 29.0769C39.3004 29.5819 38.8053 29.9283 38.2461 30.0401C37.6869 30.1519 37.1093 30.0199 36.6405 29.6731C36.2631 29.3896 35.815 29.2355 35.3549 29.2308C33.9799 29.2308 32.855 30.6154 32.855 32.3077C32.855 34 33.9799 35.3846 35.3549 35.3846C35.815 35.3799 36.2631 35.2258 36.6405 34.9423C36.8726 34.7703 37.1338 34.6493 37.4094 34.5862C37.6849 34.5231 37.9693 34.5191 38.2462 34.5744C38.5232 34.6298 38.7873 34.7435 39.0235 34.9089C39.2596 35.0743 39.4631 35.2882 39.6224 35.5385ZM20.3558 24.6154C16.6061 24.6154 13.5706 28.0577 13.5706 32.3077C13.5706 36.5577 16.6061 40 20.3558 40C24.1056 40 27.1411 36.5577 27.1411 32.3077C27.1411 28.0577 24.1056 24.6154 20.3558 24.6154ZM20.3558 35.3846C18.9809 35.3846 17.856 34 17.856 32.3077C17.856 30.6154 18.9809 29.2308 20.3558 29.2308C21.7307 29.2308 22.8557 30.6154 22.8557 32.3077C22.8557 34 21.7307 35.3846 20.3558 35.3846Z" fill="black"/>
</svg>
