<svg width="20" height="22" viewBox="0 0 24 25" fill="none" xmlns="http://www.w3.org/2000/svg">
<path d="M5.75 5V1.25C5.75 0.918479 5.8817 0.600537 6.11612 0.366116C6.35054 0.131696 6.66848 0 7 0H22C22.3315 0 22.6495 0.131696 22.8839 0.366116C23.1183 0.600537 23.25 0.918479 23.25 1.25V18.75C23.25 19.0815 23.1183 19.3995 22.8839 19.6339C22.6495 19.8683 22.3315 20 22 20H18.25V23.75C18.25 24.44 17.6875 25 16.9912 25H2.00875C1.84391 25.001 1.6805 24.9694 1.5279 24.907C1.37531 24.8447 1.23654 24.7528 1.11957 24.6366C1.0026 24.5205 0.909741 24.3823 0.846318 24.2302C0.782894 24.078 0.750162 23.9148 0.75 23.75L0.75375 6.25C0.75375 5.56 1.31625 5 2.0125 5H5.75ZM3.25375 7.5L3.25 22.5H15.75V7.5H3.25375ZM8.25 5H18.25V17.5H20.75V2.5H8.25V5Z" fill="black"/>
</svg>
