<svg width="50" height="50" viewBox="0 0 50 50" fill="none" xmlns="http://www.w3.org/2000/svg">
<path d="M33.6458 24.3542C36.6848 24.3542 39.5992 25.5614 41.7481 27.7102C43.897 29.8591 45.1042 32.7736 45.1042 35.8125C45.1042 38.8514 43.897 41.7659 41.7481 43.9148C39.5992 46.0636 36.6848 47.2708 33.6458 47.2708C30.6069 47.2708 27.6924 46.0636 25.5436 43.9148C23.3947 41.7659 22.1875 38.8514 22.1875 35.8125C22.1875 32.7736 23.3947 29.8591 25.5436 27.7102C27.6924 25.5614 30.6069 24.3542 33.6458 24.3542V24.3542ZM24.2708 3C26.0003 2.99989 27.6642 3.66157 28.9213 4.84932C30.1784 6.03706 30.9333 7.66082 31.0313 9.3875L31.0417 9.77083H41.9792C42.3751 9.77095 42.7561 9.92134 43.0454 10.1916C43.3347 10.4619 43.5106 10.8319 43.5376 11.2268C43.5645 11.6218 43.4406 12.0123 43.1908 12.3194C42.9409 12.6265 42.5839 12.8273 42.1917 12.8812L41.9792 12.8958H40.3208L39.2792 23.4937C38.3077 23.049 37.2865 22.7217 36.2375 22.5188L37.1813 12.8958H11.3583L13.9979 39.7125C14.0564 40.3109 14.32 40.8706 14.7442 41.2966C15.1684 41.7227 15.7269 41.9889 16.325 42.05L16.5896 42.0625H21.6313C22.2271 43.2104 22.9854 44.2625 23.8729 45.1875H16.5896C15.2301 45.1875 13.915 44.704 12.8792 43.8235C11.8434 42.9431 11.1544 41.723 10.9354 40.3813L10.8875 40.0187L8.21875 12.8958H6.5625C6.18492 12.8958 5.82012 12.7591 5.53556 12.5109C5.251 12.2627 5.06593 11.9199 5.01458 11.5458L5 11.3333C5.00002 10.9558 5.13676 10.591 5.38493 10.3064C5.63311 10.0218 5.97593 9.83677 6.35 9.78542L6.5625 9.77083H17.5C17.5 7.9751 18.2134 6.25291 19.4831 4.98313C20.7529 3.71335 22.4751 3 24.2708 3V3ZM27.8458 29.7479L27.7 29.8667L27.5813 30.0125C27.4612 30.1865 27.3969 30.3928 27.3969 30.6042C27.3969 30.8155 27.4612 31.0219 27.5813 31.1958L27.7 31.3417L32.1729 35.8125L27.7 40.2833L27.5813 40.4292C27.4612 40.6031 27.3969 40.8095 27.3969 41.0208C27.3969 41.2322 27.4612 41.4385 27.5813 41.6125L27.7 41.7583L27.8458 41.8771C28.0198 41.9971 28.2261 42.0614 28.4375 42.0614C28.6489 42.0614 28.8552 41.9971 29.0292 41.8771L29.175 41.7583L33.6458 37.2854L38.1167 41.7583L38.2625 41.8771C38.4365 41.9971 38.6428 42.0614 38.8542 42.0614C39.0655 42.0614 39.2719 41.9971 39.4458 41.8771L39.5917 41.7583L39.7104 41.6125C39.8305 41.4385 39.8948 41.2322 39.8948 41.0208C39.8948 40.8095 39.8305 40.6031 39.7104 40.4292L39.5917 40.2833L35.1188 35.8125L39.5917 31.3417L39.7104 31.1958C39.8305 31.0219 39.8948 30.8155 39.8948 30.6042C39.8948 30.3928 39.8305 30.1865 39.7104 30.0125L39.5917 29.8667L39.4458 29.7479C39.2719 29.6279 39.0655 29.5636 38.8542 29.5636C38.6428 29.5636 38.4365 29.6279 38.2625 29.7479L38.1167 29.8667L33.6458 34.3396L29.175 29.8667L29.0292 29.7479C28.8809 29.6452 28.7085 29.5827 28.5288 29.5667C28.3491 29.5506 28.1683 29.5815 28.0042 29.6562L27.8458 29.7479V29.7479ZM24.2708 6.125C23.3559 6.12503 22.4743 6.46911 21.8013 7.08892C21.1282 7.70873 20.7128 8.55896 20.6375 9.47083L20.625 9.77083H27.9167C27.9167 8.8039 27.5326 7.87657 26.8488 7.19284C26.1651 6.50911 25.2378 6.125 24.2708 6.125Z" fill="black"/>
</svg>
