<svg width="41" height="43" viewBox="0 0 41 43" fill="none" xmlns="http://www.w3.org/2000/svg">
<path d="M41 21.5C41 23.3285 39.5877 24.8087 37.8462 24.8087H23.6538V39.6933C23.6538 41.5219 22.2415 43 20.5 43C18.7585 43 17.3462 41.5219 17.3462 39.6933V24.8087H3.15385C1.41233 24.8087 0 23.3285 0 21.5C0 19.6715 1.41233 18.1933 3.15385 18.1933H17.3462V3.30873C17.3462 1.48019 18.7585 0 20.5 0C22.2415 0 23.6538 1.48019 23.6538 3.30873V18.1933H37.8462C39.5906 18.1923 41 19.6704 41 21.5Z" fill="white"/>
</svg>
