<svg width="30" height="33" viewBox="0 0 30 33" fill="none" xmlns="http://www.w3.org/2000/svg">
<path d="M28.9286 16.5C28.9286 17.6402 27.969 18.5631 26.7857 18.5631H17.1429V27.8444C17.1429 28.9846 16.1833 29.9063 15 29.9063C13.8167 29.9063 12.8571 28.9846 12.8571 27.8444V18.5631H3.21428C2.03102 18.5631 1.07143 17.6402 1.07143 16.5C1.07143 15.3598 2.03102 14.4381 3.21428 14.4381H12.8571V5.15689C12.8571 4.01672 13.8167 3.09375 15 3.09375C16.1833 3.09375 17.1429 4.01672 17.1429 5.15689V14.4381H26.7857C27.971 14.4375 28.9286 15.3592 28.9286 16.5Z" fill="white"/>
</svg>
