<svg width="50" height="50" viewBox="0 0 50 50" fill="none" xmlns="http://www.w3.org/2000/svg">
<path d="M34.1814 25.0833C37.2203 25.0833 40.1348 26.2905 42.2837 28.4394C44.4325 30.5883 45.6397 33.5027 45.6397 36.5417C45.6397 39.5806 44.4325 42.4951 42.2837 44.6439C40.1348 46.7928 37.2203 48 34.1814 48C31.1425 48 28.228 46.7928 26.0791 44.6439C23.9303 42.4951 22.7231 39.5806 22.7231 36.5417C22.7231 33.5027 23.9303 30.5883 26.0791 28.4394C28.228 26.2905 31.1425 25.0833 34.1814 25.0833ZM24.8064 3.72917C26.5358 3.72905 28.1998 4.39074 29.4569 5.57848C30.714 6.76623 31.4689 8.38999 31.5668 10.1167L31.5772 10.5H42.5147C42.9106 10.5001 43.2917 10.6505 43.581 10.9208C43.8702 11.191 44.0461 11.561 44.0731 11.956C44.1001 12.351 43.9762 12.7414 43.7263 13.0485C43.4765 13.3556 43.1194 13.5565 42.7272 13.6104L42.5147 13.625H40.8564L39.8147 24.2229C38.8432 23.7781 37.8221 23.4508 36.7731 23.2479L37.7168 13.625H11.8939L14.5335 40.4417C14.5919 41.04 14.8556 41.5997 15.2798 42.0258C15.7039 42.4519 16.2625 42.718 16.8606 42.7792L17.1251 42.7917H22.1668C22.7626 43.9396 23.521 44.9917 24.4085 45.9167H17.1251C15.7657 45.9166 14.4505 45.4332 13.4147 44.5527C12.3789 43.6722 11.69 42.4521 11.471 41.1104L11.4231 40.7479L8.75431 13.625H7.09806C6.72048 13.625 6.35568 13.4882 6.07112 13.2401C5.78656 12.9919 5.6015 12.6491 5.55014 12.275L5.53556 12.0625C5.53558 11.6849 5.67232 11.3201 5.92049 11.0356C6.16867 10.751 6.51149 10.5659 6.88556 10.5146L7.09806 10.5H18.0356C18.0356 8.70426 18.7489 6.98208 20.0187 5.7123C21.2885 4.44252 23.0107 3.72917 24.8064 3.72917ZM28.3814 30.4771L28.2356 30.5958L28.1168 30.7417C27.9968 30.9156 27.9325 31.122 27.9325 31.3333C27.9325 31.5447 27.9968 31.751 28.1168 31.925L28.2356 32.0708L32.7085 36.5417L28.2356 41.0125L28.1168 41.1583C27.9968 41.3323 27.9325 41.5386 27.9325 41.75C27.9325 41.9614 27.9968 42.1677 28.1168 42.3417L28.2356 42.4875L28.3814 42.6062C28.5553 42.7263 28.7617 42.7906 28.9731 42.7906C29.1844 42.7906 29.3908 42.7263 29.5647 42.6062L29.7106 42.4875L34.1814 38.0146L38.6522 42.4875L38.7981 42.6062C38.972 42.7263 39.1784 42.7906 39.3897 42.7906C39.6011 42.7906 39.8074 42.7263 39.9814 42.6062L40.1272 42.4875L40.246 42.3417C40.366 42.1677 40.4303 41.9614 40.4303 41.75C40.4303 41.5386 40.366 41.3323 40.246 41.1583L40.1272 41.0125L35.6543 36.5417L40.1272 32.0708L40.246 31.925C40.366 31.751 40.4303 31.5447 40.4303 31.3333C40.4303 31.122 40.366 30.9156 40.246 30.7417L40.1272 30.5958L39.9814 30.4771C39.8074 30.357 39.6011 30.2927 39.3897 30.2927C39.1784 30.2927 38.972 30.357 38.7981 30.4771L38.6522 30.5958L34.1814 35.0687L29.7106 30.5958L29.5647 30.4771C29.4164 30.3744 29.244 30.3119 29.0643 30.2958C28.8847 30.2798 28.7039 30.3106 28.5397 30.3854L28.3814 30.4771ZM24.8064 6.85417C23.8914 6.8542 23.0099 7.19827 22.3368 7.81808C21.6638 8.43789 21.2484 9.28812 21.1731 10.2L21.1606 10.5H28.4522C28.4522 9.53307 28.0681 8.60573 27.3844 7.92201C26.7007 7.23828 25.7733 6.85417 24.8064 6.85417Z" fill="black"/>
</svg>
