<svg width="50" height="50" viewBox="0 0 50 50" fill="none" xmlns="http://www.w3.org/2000/svg">
<path d="M36.4583 16.6667C39.3348 16.6667 41.6667 14.3348 41.6667 11.4583C41.6667 8.58185 39.3348 6.25 36.4583 6.25C33.5819 6.25 31.25 8.58185 31.25 11.4583C31.25 14.3348 33.5819 16.6667 36.4583 16.6667Z" fill="#2F88FF" stroke="black" stroke-width="4.16667" stroke-linejoin="round"/>
<path d="M13.5417 30.2083C16.4181 30.2083 18.75 27.8764 18.75 25C18.75 22.1235 16.4181 19.7917 13.5417 19.7917C10.6652 19.7917 8.33333 22.1235 8.33333 25C8.33333 27.8764 10.6652 30.2083 13.5417 30.2083Z" fill="#2F88FF" stroke="black" stroke-width="4.16667" stroke-linejoin="round"/>
<path d="M31.2499 14.1401L18.0613 22.1306" stroke="black" stroke-width="4.16667" stroke-linecap="round" stroke-linejoin="round"/>
<path d="M18.0613 27.6707L31.9575 35.8822" stroke="black" stroke-width="4.16667" stroke-linecap="round" stroke-linejoin="round"/>
<path d="M36.4583 33.3333C39.3348 33.3333 41.6667 35.6652 41.6667 38.5417C41.6667 41.4181 39.3348 43.75 36.4583 43.75C33.5819 43.75 31.25 41.4181 31.25 38.5417C31.25 35.6652 33.5819 33.3333 36.4583 33.3333Z" fill="#2F88FF" stroke="black" stroke-width="4.16667" stroke-linejoin="round"/>
</svg>
