<svg width="90" height="90" viewBox="0 0 90 90" fill="none" xmlns="http://www.w3.org/2000/svg">
<rect x="0.5" y="0.5" width="89" height="89" fill="white" stroke="#2588BF"/>
<path d="M33.6059 33.35H22.7559V29.05H49.6059V33.35H38.7559V64H33.6059V33.35ZM60.0801 64.75C57.6467 64.75 55.7634 64.05 54.4301 62.65C53.1301 61.25 52.4801 59.2667 52.4801 56.7V43.9H48.8301V40H52.4801V32.8H57.5801V40H63.4801V43.9H57.5801V56.35C57.5801 57.95 57.8801 59.0833 58.4801 59.75C59.1134 60.4167 60.2467 60.75 61.8801 60.75C62.8467 60.75 63.8134 60.5333 64.7801 60.1V64.1C63.5134 64.5333 61.9467 64.75 60.0801 64.75Z" fill="#2588BF"/>
</svg>
