<svg width="80" height="80" viewBox="0 0 80 80" fill="none" xmlns="http://www.w3.org/2000/svg">
<rect x="0.5" y="0.5" width="79" height="79" fill="white" stroke="black"/>
<path d="M29.3816 27.576H18.9656V23.448H44.7416V27.576H34.3256V57H29.3816V27.576ZM54.7969 57.72C52.4609 57.72 50.6529 57.048 49.3729 55.704C48.1249 54.36 47.5009 52.456 47.5009 49.992V37.704H43.9969V33.96H47.5009V27.048H52.3969V33.96H58.0609V37.704H52.3969V49.656C52.3969 51.192 52.6849 52.28 53.2609 52.92C53.8689 53.56 54.9569 53.88 56.5249 53.88C57.4529 53.88 58.3809 53.672 59.3089 53.256V57.096C58.0929 57.512 56.5889 57.72 54.7969 57.72Z" fill="black"/>
</svg>
